<?xml version="1.0" encoding="utf-8"?>
<!-- Generator: Adobe Illustrator 16.0.0, SVG Export Plug-In . SVG Version: 6.00 Build 0)  -->
<!DOCTYPE svg PUBLIC "-//W3C//DTD SVG 1.1//EN" "http://www.w3.org/Graphics/SVG/1.1/DTD/svg11.dtd">
<svg version="1.1" id="Layer_1" xmlns="http://www.w3.org/2000/svg" xmlns:xlink="http://www.w3.org/1999/xlink" x="0px" y="0px"
	 width="100px" height="100px" viewBox="0 0 100 100" enable-background="new 0 0 100 100" xml:space="preserve">
<g>
	<g>
		<path fill="#8BC53F" d="M70.592,72.539c-1.105-2.271-2.521-4.35-4.157-6.192c-0.812-0.943-1.697-1.799-2.64-2.624
			c-0.235-0.191-0.472-0.383-0.707-0.59l-0.738-0.575c-0.486-0.368-1.002-0.752-1.489-1.12c-2.02-1.46-4.113-2.831-6.221-4.188
			c-2.109-1.356-4.262-2.684-6.385-4.128c-2.093-1.445-4.157-2.978-6.104-4.777c-1.916-1.754-3.716-3.73-5.131-5.986
			c-1.43-2.27-2.433-4.851-2.874-7.49c-0.251-1.327-0.34-2.683-0.296-4.025c0.016-1.312,0.221-2.653,0.487-3.921v-0.088v0.015
			c0.354-1.076,0.648-2.152,1.062-3.214c0.383-1.077,0.811-2.094,1.269-3.141l0.294,0.074l-0.752,6.665l0.014-0.074
			c-0.073,1.238-0.014,2.403,0.104,3.612c0.103,1.194,0.34,2.345,0.634,3.48c0.619,2.27,1.563,4.393,2.802,6.428
			c1.223,2.02,2.653,3.966,4.318,5.72c1.667,1.755,3.569,3.362,5.529,4.865c3.938,3.022,8.227,5.78,12.119,9.053
			c0.501,0.413,0.973,0.826,1.444,1.253l0.708,0.635c0.251,0.235,0.472,0.442,0.709,0.678c0.913,0.914,1.768,1.872,2.535,2.891
			c1.563,2.02,2.831,4.261,3.744,6.634L70.592,72.539z"/>
	</g>
	<path fill="#37B34A" d="M54.564,34.84c0,3.421-2.785,6.207-6.221,6.207c-3.421,0-6.192-2.786-6.192-6.207
		c0-3.42,2.771-6.207,6.192-6.207C51.779,28.633,54.564,31.419,54.564,34.84z"/>
	<path fill="#8BC53F" d="M35.959,20.494c0,0,0.073-9.687,10.424-13.151c-3.76,2.462-8.949,8.124-9.156,15.702
		c0,0,8.346,1.15,9.054-6.634c0.706-7.771,0.766-9.023,6.398-10.63C48.182,4.823,40.22,2.198,34.75,9.806
		C32.716,12.651,32.495,18.445,35.959,20.494z"/>
	<path fill="#37B34A" d="M65.963,74.131c-1.622-3.759-4.159-7.105-7.226-9.774c-2.934-2.521-6.059-4.659-9.154-6.768
		c-3.127-2.093-6.223-4.173-9.068-6.575c-2.831-2.389-5.353-5.175-7.195-8.33c-1.843-3.14-2.918-6.708-2.992-10.247
		c-0.06-1.253,0.029-2.492,0.177-3.73c0.178-0.826,0.354-1.651,0.531-2.477c0.294-1.356,0.679-2.742,1.018-4.025
		c0.014-0.059,0.044-0.104,0.044-0.162c0.383-1.106-0.178-2.359-1.269-2.802c-1.15-0.486-2.477,0.074-2.963,1.224l-0.073,0.221
		c-0.62,1.459-1.047,2.815-1.504,4.246c-0.442,1.415-0.84,2.86-1.209,4.29c-0.708,2.89-1.298,5.839-1.636,8.831
		c-0.354,2.993-0.502,6.06-0.222,9.17c0.295,3.097,0.974,6.266,2.389,9.245c0.353,0.752,0.738,1.489,1.194,2.196l0.339,0.531
		l0.325,0.472c0.221,0.28,0.501,0.679,0.736,0.988c1.002,1.253,2.123,2.418,3.318,3.465c2.417,2.107,5.232,3.671,8.166,4.702
		c1.46,0.517,2.964,0.899,4.482,1.15c1.52,0.251,3.053,0.354,4.571,0.339c1.518-0.029,3.022-0.191,4.511-0.516
		c0.988-0.251,1.99-0.53,2.904-1.017c2.271,2.137,4.218,4.585,5.691,7.327c3.258,6.089,4.157,13.534,3.244,20.936l-0.016,0.029
		c-0.015,0.103,0.045,0.221,0.163,0.28c0.133,0.06,0.294,0.029,0.367-0.118c0.87-1.754,1.46-3.597,1.902-5.499
		c0.207-0.944,0.385-1.917,0.501-2.875c0.118-0.988,0.178-1.977,0.207-2.963C68.336,81.945,67.599,77.876,65.963,74.131z
		 M41.311,62.086c-4.172-2.138-7.829-5.411-10.349-9.451c-2.521-4.054-3.849-8.728-4.084-13.401
		c-0.266-4.659,0.324-9.332,1.886-13.667c-0.383,2.271-0.619,4.526-0.648,6.782c-0.073,2.27,0.016,4.526,0.325,6.752
		c0.59,4.408,1.916,8.729,4.275,12.443c2.301,3.745,5.602,6.812,9.376,9.155c1.888,1.195,3.922,2.183,6.016,3.023
		c2.079,0.914,4.262,1.606,6.457,2.285C49.995,65.521,45.469,64.253,41.311,62.086z"/>
</g>
</svg>
